<svg width="1000" height="1000" viewBox="0 0 1000 1000" fill="none" xmlns="http://www.w3.org/2000/svg">
<circle cx="500" cy="500" r="470" fill="#F3F4F1" stroke="#272E3A" stroke-width="60"/>
<mask id="path-2-inside-1_1025_2" fill="white">
<path fill-rule="evenodd" clip-rule="evenodd" d="M0 500C0 776.142 223.858 1000 500 1000C776.142 1000 1000 776.142 1000 500H0Z"/>
</mask>
<path fill-rule="evenodd" clip-rule="evenodd" d="M0 500C0 776.142 223.858 1000 500 1000C776.142 1000 1000 776.142 1000 500H0Z" fill="#272E3A"/>
<path d="M0 500V440H-60V500H0ZM1000 500H1060V440H1000V500ZM500 940C256.995 940 60 743.005 60 500H-60C-60 809.279 190.721 1060 500 1060V940ZM940 500C940 743.005 743.005 940 500 940V1060C809.279 1060 1060 809.279 1060 500H940ZM1000 440H0V560H1000V440Z" fill="#272E3A" mask="url(#path-2-inside-1_1025_2)"/>
<circle cx="418" cy="603" r="65" fill="#272E3A" stroke="white" stroke-width="20"/>
<circle cx="418" cy="603" r="25" fill="#2AB7F6"/>
<circle cx="254" cy="603" r="65" fill="#272E3A" stroke="white" stroke-width="20"/>
<circle cx="254" cy="603" r="25" fill="#2AB7F6"/>
<circle cx="746" cy="603" r="65" fill="#272E3A" stroke="white" stroke-width="20"/>
<circle cx="746" cy="603" r="25" fill="#2AB7F6"/>
<circle cx="582" cy="603" r="65" fill="#272E3A" stroke="white" stroke-width="20"/>
<circle cx="582" cy="603" r="25" fill="#2AB7F6"/>
<circle cx="418" cy="767" r="65" fill="#272E3A" stroke="white" stroke-width="20"/>
<circle cx="418" cy="767" r="25" fill="#2AB7F6"/>
<circle cx="254" cy="767" r="65" fill="#272E3A" stroke="white" stroke-width="20"/>
<circle cx="254" cy="767" r="25" fill="#2AB7F6"/>
<circle cx="746" cy="767" r="65" fill="#272E3A" stroke="white" stroke-width="20"/>
<circle cx="746" cy="767" r="25" fill="#2AB7F6"/>
<circle cx="582" cy="767" r="65" fill="#272E3A" stroke="white" stroke-width="20"/>
<circle cx="582" cy="767" r="25" fill="#2AB7F6"/>
<circle cx="336" cy="685" r="15" fill="#2AB7F6"/>
<circle cx="500" cy="685" r="15" fill="#2AB7F6"/>
<circle cx="664" cy="685" r="15" fill="#2AB7F6"/>
<circle cx="336" cy="847" r="15" fill="#2AB7F6"/>
<circle cx="500" cy="847" r="15" fill="#2AB7F6"/>
<circle cx="664" cy="847" r="15" fill="#2AB7F6"/>
<path fill-rule="evenodd" clip-rule="evenodd" d="M262 292C263.341 422.568 369.602 528 500.487 528C631.373 528 737.633 422.568 738.974 292H638.965C637.631 367.338 576.144 428 500.487 428C424.831 428 363.343 367.338 362.009 292H262Z" fill="#272E3A"/>
<circle cx="344.5" cy="274.5" r="82.5" fill="#F3F4F1"/>
<circle cx="656.5" cy="274.5" r="82.5" fill="#F3F4F1"/>
<rect x="250" y="432" width="500" height="30" fill="#272E3A"/>
<rect x="721" y="398" width="50" height="130" rx="25" fill="#272E3A"/>
<rect x="229" y="398" width="50" height="130" rx="25" fill="#272E3A"/>
<rect x="721" y="462" width="50" height="15" fill="#2AB7F6"/>
<rect x="229" y="462" width="50" height="15" fill="#2AB7F6"/>
<circle cx="500" cy="274" r="139" fill="#272E3A"/>
<circle cx="436.818" cy="239.461" r="28.697" fill="#272E3A" stroke="#F3F4F1" stroke-width="10"/>
<circle cx="561.497" cy="239.461" r="28.697" fill="#272E3A" stroke="#F3F4F1" stroke-width="10"/>
<rect x="457.036" y="305.17" width="84.2424" height="25.2727" rx="12.6364" fill="#F3F4F1"/>
</svg>
