<svg width="441" height="96" viewBox="0 0 441 96" fill="none" xmlns="http://www.w3.org/2000/svg">
<path d="M15.7862 64.2875C16.5065 64.353 17.3249 64.4184 18.2416 64.4839C19.2237 64.4839 20.3696 64.4839 21.6791 64.4839C29.3399 64.4839 35.0036 62.5523 38.6703 58.6892C42.4025 54.8261 44.2686 49.4897 44.2686 42.6801C44.2686 35.5432 42.5007 30.1413 38.965 26.4746C35.4292 22.8079 29.831 20.9746 22.1702 20.9746C21.1226 20.9746 20.0422 21.0073 18.9291 21.0728C17.816 21.0728 16.7684 21.1383 15.7862 21.2692V64.2875ZM60.0813 42.6801C60.0813 48.573 59.1646 53.713 57.3312 58.0999C55.4979 62.4869 52.8788 66.1208 49.474 69.0018C46.1347 71.8828 42.0424 74.0435 37.1971 75.484C32.3518 76.9245 26.9173 77.6447 20.8934 77.6447C18.1434 77.6447 14.935 77.5138 11.2683 77.2519C7.60161 77.0554 4.00038 76.5971 0.464638 75.8769V9.58161C4.00038 8.92684 7.66709 8.50124 11.4647 8.30481C15.3279 8.0429 18.6344 7.91195 21.3845 7.91195C27.2119 7.91195 32.4828 8.56672 37.1971 9.87625C41.9769 11.1858 46.0692 13.2483 49.474 16.0638C52.8788 18.8793 55.4979 22.4805 57.3312 26.8675C59.1646 31.2544 60.0813 36.5253 60.0813 42.6801ZM92.9479 66.5464C94.3884 66.5464 95.7634 66.5137 97.0729 66.4482C98.3825 66.3827 99.4301 66.2845 100.216 66.1536V55.0552C99.6265 54.9243 98.7426 54.7933 97.564 54.6624C96.3854 54.5314 95.305 54.466 94.3229 54.466C92.9479 54.466 91.6383 54.5642 90.3943 54.7606C89.2157 54.8916 88.1681 55.1862 87.2514 55.6445C86.3347 56.1029 85.6145 56.7249 85.0907 57.5106C84.5669 58.2963 84.3049 59.2785 84.3049 60.4571C84.3049 62.7488 85.0579 64.3529 86.5639 65.2696C88.1353 66.1208 90.2633 66.5464 92.9479 66.5464ZM91.7693 23.7246C96.0908 23.7246 99.692 24.2157 102.573 25.1978C105.454 26.18 107.746 27.5877 109.448 29.4211C111.216 31.2544 112.46 33.4806 113.18 36.0997C113.9 38.7188 114.261 41.6325 114.261 44.8409V75.2876C112.165 75.7459 109.252 76.2697 105.519 76.859C101.787 77.5138 97.2694 77.8412 91.9657 77.8412C88.6264 77.8412 85.5817 77.5465 82.8317 76.9572C80.1472 76.3679 77.8227 75.4185 75.8584 74.109C73.8941 72.734 72.3882 70.9661 71.3405 68.8054C70.2929 66.6446 69.7691 63.9928 69.7691 60.8499C69.7691 57.838 70.3584 55.2844 71.537 53.1892C72.781 51.0939 74.418 49.4242 76.4477 48.1802C78.4775 46.9361 80.8019 46.0522 83.421 45.5284C86.0401 44.9391 88.7574 44.6444 91.5729 44.6444C93.4717 44.6444 95.1414 44.7426 96.5818 44.9391C98.0878 45.07 99.2991 45.2665 100.216 45.5284V44.1534C100.216 41.6652 99.4628 39.6682 97.9569 38.1622C96.4509 36.6563 93.8318 35.9033 90.0996 35.9033C87.6115 35.9033 85.1561 36.0997 82.7335 36.4926C80.3109 36.82 78.2156 37.311 76.4477 37.9658L74.5816 26.18C75.4328 25.9181 76.4805 25.6562 77.7245 25.3943C79.0341 25.0669 80.4418 24.805 81.9478 24.6085C83.4537 24.3466 85.0252 24.1502 86.6621 24.0192C88.3645 23.8228 90.0669 23.7246 91.7693 23.7246ZM149.428 77.743C145.172 77.6775 141.702 77.2191 139.018 76.3679C136.398 75.5167 134.303 74.3382 132.732 72.8322C131.226 71.2608 130.178 69.3947 129.589 67.2339C129.065 65.0077 128.803 62.5196 128.803 59.7696V2.90297L143.437 0.54581V56.8231C143.437 58.1327 143.535 59.3112 143.732 60.3589C143.928 61.4065 144.288 62.2904 144.812 63.0107C145.402 63.7309 146.22 64.3202 147.268 64.7785C148.315 65.2369 149.723 65.5315 151.491 65.6625L149.428 77.743ZM182.369 66.5464C183.809 66.5464 185.184 66.5137 186.494 66.4482C187.803 66.3827 188.851 66.2845 189.637 66.1536V55.0552C189.047 54.9243 188.163 54.7933 186.985 54.6624C185.806 54.5314 184.726 54.466 183.744 54.466C182.369 54.466 181.059 54.5642 179.815 54.7606C178.636 54.8916 177.589 55.1862 176.672 55.6445C175.755 56.1029 175.035 56.7249 174.511 57.5106C173.988 58.2963 173.726 59.2785 173.726 60.4571C173.726 62.7488 174.479 64.3529 175.985 65.2696C177.556 66.1208 179.684 66.5464 182.369 66.5464ZM181.19 23.7246C185.512 23.7246 189.113 24.2157 191.994 25.1978C194.875 26.18 197.166 27.5877 198.869 29.4211C200.637 31.2544 201.881 33.4806 202.601 36.0997C203.321 38.7188 203.681 41.6325 203.681 44.8409V75.2876C201.586 75.7459 198.672 76.2697 194.94 76.859C191.208 77.5138 186.69 77.8412 181.386 77.8412C178.047 77.8412 175.002 77.5465 172.252 76.9572C169.568 76.3679 167.243 75.4185 165.279 74.109C163.315 72.734 161.809 70.9661 160.761 68.8054C159.714 66.6446 159.19 63.9928 159.19 60.8499C159.19 57.838 159.779 55.2844 160.958 53.1892C162.202 51.0939 163.839 49.4242 165.868 48.1802C167.898 46.9361 170.223 46.0522 172.842 45.5284C175.461 44.9391 178.178 44.6444 180.994 44.6444C182.892 44.6444 184.562 44.7426 186.003 44.9391C187.509 45.07 188.72 45.2665 189.637 45.5284V44.1534C189.637 41.6652 188.884 39.6682 187.378 38.1622C185.872 36.6563 183.253 35.9033 179.52 35.9033C177.032 35.9033 174.577 36.0997 172.154 36.4926C169.732 36.82 167.636 37.311 165.868 37.9658L164.002 26.18C164.854 25.9181 165.901 25.6562 167.145 25.3943C168.455 25.0669 169.863 24.805 171.369 24.6085C172.875 24.3466 174.446 24.1502 176.083 24.0192C177.785 23.8228 179.488 23.7246 181.19 23.7246ZM218.224 26.8675C220.712 26.1472 223.92 25.4925 227.849 24.9032C231.778 24.2484 235.903 23.921 240.224 23.921C244.611 23.921 248.245 24.5103 251.126 25.6889C254.072 26.802 256.397 28.4062 258.099 30.5014C259.802 32.5967 261.013 35.0848 261.733 37.9658C262.454 40.8468 262.814 44.0551 262.814 47.5909V76.7608H248.18V49.3588C248.18 44.6444 247.558 41.3051 246.313 39.3408C245.069 37.3765 242.745 36.3944 239.34 36.3944C238.293 36.3944 237.179 36.4598 236.001 36.5908C234.822 36.6563 233.775 36.7545 232.858 36.8854V76.7608H218.224V26.8675ZM289.843 49.2605C289.843 57.4451 293.149 61.5374 299.762 61.5374C301.268 61.5374 302.676 61.341 303.986 60.9482C305.295 60.5553 306.408 60.097 307.325 59.5731V36.1979C306.605 36.067 305.753 35.9688 304.771 35.9033C303.789 35.7723 302.643 35.7069 301.334 35.7069C297.471 35.7069 294.59 36.9836 292.691 39.5372C290.792 42.0908 289.843 45.3319 289.843 49.2605ZM321.959 70.2786C321.959 78.7251 319.798 84.9781 315.477 89.0377C311.221 93.1627 304.608 95.2253 295.637 95.2253C292.494 95.2253 289.352 94.9306 286.209 94.3413C283.066 93.8175 280.152 93.0973 277.467 92.1806L280.021 79.9037C282.313 80.8204 284.703 81.5406 287.191 82.0644C289.744 82.5882 292.625 82.8501 295.834 82.8501C300.024 82.8501 302.971 81.9335 304.673 80.1001C306.441 78.2668 307.325 75.9096 307.325 73.0286V71.1625C305.753 71.8828 304.117 72.4393 302.414 72.8322C300.777 73.1596 298.977 73.3233 297.012 73.3233C289.875 73.3233 284.408 71.228 280.61 67.0375C276.813 62.7815 274.914 56.8559 274.914 49.2605C274.914 45.4629 275.503 42.0254 276.682 38.948C277.86 35.8051 279.563 33.1205 281.789 30.8943C284.081 28.6681 286.863 26.9657 290.137 25.7871C293.411 24.5431 297.111 23.921 301.236 23.921C303.003 23.921 304.804 24.0192 306.637 24.2157C308.536 24.3466 310.402 24.5431 312.236 24.805C314.069 25.0669 315.804 25.3943 317.441 25.7871C319.143 26.1145 320.649 26.4746 321.959 26.8675V70.2786ZM351.334 69.0018C351.334 71.9483 350.384 74.2072 348.485 75.7787C346.652 77.2846 344.557 78.0376 342.2 78.0376C339.842 78.0376 337.714 77.2846 335.816 75.7787C333.982 74.2072 333.066 71.9483 333.066 69.0018C333.066 66.0553 333.982 63.8291 335.816 62.3232C337.714 60.7517 339.842 59.966 342.2 59.966C344.557 59.966 346.652 60.7517 348.485 62.3232C350.384 63.8291 351.334 66.0553 351.334 69.0018ZM377.108 76.7608H362.474V25.0996H377.108V76.7608ZM378.483 10.1709C378.483 12.8554 377.599 14.9834 375.831 16.5549C374.129 18.0609 372.099 18.8138 369.742 18.8138C367.385 18.8138 365.322 18.0609 363.554 16.5549C361.852 14.9834 361.001 12.8554 361.001 10.1709C361.001 7.48635 361.852 5.39109 363.554 3.88512C365.322 2.31368 367.385 1.52796 369.742 1.52796C372.099 1.52796 374.129 2.31368 375.831 3.88512C377.599 5.39109 378.483 7.48635 378.483 10.1709ZM440.496 50.832C440.496 54.8916 439.906 58.6237 438.728 62.0285C437.549 65.3678 435.847 68.2488 433.621 70.6715C431.394 73.0286 428.71 74.862 425.567 76.1715C422.49 77.481 419.019 78.1358 415.156 78.1358C411.359 78.1358 407.888 77.481 404.745 76.1715C401.668 74.862 399.016 73.0286 396.79 70.6715C394.564 68.2488 392.829 65.3678 391.585 62.0285C390.341 58.6237 389.719 54.8916 389.719 50.832C389.719 46.7724 390.341 43.073 391.585 39.7337C392.894 36.3944 394.662 33.5461 396.888 31.189C399.18 28.8318 401.864 26.9984 404.942 25.6889C408.085 24.3794 411.49 23.7246 415.156 23.7246C418.888 23.7246 422.293 24.3794 425.371 25.6889C428.514 26.9984 431.198 28.8318 433.424 31.189C435.65 33.5461 437.386 36.3944 438.63 39.7337C439.874 43.073 440.496 46.7724 440.496 50.832ZM425.567 50.832C425.567 46.3141 424.65 42.7783 422.817 40.2247C421.049 37.6057 418.496 36.2961 415.156 36.2961C411.817 36.2961 409.231 37.6057 407.397 40.2247C405.564 42.7783 404.647 46.3141 404.647 50.832C404.647 55.3499 405.564 58.9511 407.397 61.6357C409.231 64.2547 411.817 65.5643 415.156 65.5643C418.496 65.5643 421.049 64.2547 422.817 61.6357C424.65 58.9511 425.567 55.3499 425.567 50.832Z" fill="#272E3A"/>
</svg>
